<svg width="240" height="69" viewBox="0 0 240 69" fill="none" xmlns="http://www.w3.org/2000/svg">
<rect width="240" height="68" transform="translate(0.00927734)" fill="#E3E1D5"/>
<path d="M4.00928 4H236.009V64H4.00928V4Z" fill="#D1AABC"/>
<path d="M37.8843 0.390625C39.3292 -0.14104 40.8115 -0.0992812 42.228 0.5L42.9468 0.8125C43.6514 1.11052 44.3136 1.21667 44.9468 1.1875L45.3062 1.17188L45.6812 1.15625C47.1419 1.08823 48.5188 1.55395 49.7593 2.375L50.478 2.84375C50.9427 3.15072 51.1941 3.12915 51.4624 3.01562L52.1812 2.70312C53.1738 2.28052 54.1704 1.88895 55.1655 1.53125L55.5405 1.40625L55.8999 1.28125C57.3747 0.7526 58.8755 0.840631 60.2905 1.5L61.0093 1.84375C61.9736 2.29393 62.9513 2.74456 63.9155 3.20312L64.6343 3.54688C64.847 3.64721 65.0351 3.69301 65.478 3.375L65.8374 3.10938L66.1968 2.85938C66.932 2.33035 67.8128 1.96506 68.7905 1.95312C69.7653 1.94258 70.641 2.28186 71.3843 2.79688L72.103 3.29688C72.6664 3.68848 73.0231 3.68862 73.3062 3.60938L73.6655 3.51562L74.0249 3.40625C74.7735 3.19616 75.5661 2.84675 76.3843 2.32812L76.7437 2.10938L77.103 1.875C78.3825 1.06504 79.8089 0.65557 81.3062 0.84375L82.0249 0.9375C83.3967 1.1111 84.6672 1.70802 85.8374 2.57812L86.5562 3.10938C86.6269 3.162 86.6829 3.18923 86.7124 3.20312C86.7554 3.18284 86.83 3.13057 86.9468 3.03125L87.3062 2.71875L87.6655 2.42188C88.8497 1.41235 90.2115 0.716465 91.7124 0.609375L92.0718 0.59375L92.4312 0.5625C93.9689 0.453976 95.3877 0.988008 96.6343 1.90625L97.353 2.4375C97.9966 2.91186 98.4532 2.97862 98.7905 2.9375L99.1655 2.89062L99.5249 2.85938C100.374 2.75138 101.228 2.56418 102.087 2.3125L102.447 2.20312L102.806 2.10938C104.419 1.63713 105.984 1.98582 107.353 2.89062L107.712 3.125L108.041 3.34375C108.112 3.29493 108.228 3.21594 108.369 3.0625L108.728 2.65625L109.087 2.26562C109.727 1.56562 110.558 0.942623 111.587 0.71875C112.683 0.48126 113.71 0.75419 114.556 1.3125L114.916 1.5625L115.275 1.79688C115.73 2.09657 115.976 2.06915 116.244 1.95312L116.962 1.64062C118.522 0.959852 120.144 1.07806 121.619 1.89062L121.978 2.07812L122.337 2.28125C123.224 2.76987 124.106 3.19164 124.978 3.53125L125.337 3.65625L125.697 3.79688C126.007 3.91768 126.309 3.93825 126.791 3.64062L127.15 3.40625L127.509 3.1875C128.875 2.34015 130.42 2.02879 131.994 2.46875L132.353 2.57812L132.712 2.67188C133.02 2.75687 133.39 2.74589 133.947 2.375L134.666 1.90625C135.383 1.42844 136.201 1.09627 137.103 1.04688C138.009 0.997913 138.859 1.23417 139.619 1.65625L140.337 2.0625C141.186 2.53466 142.022 2.88834 142.837 3.14062L143.556 3.35938C144.349 3.60456 145.132 3.73052 145.9 3.75L146.619 3.78125C147.086 3.7931 147.65 3.64855 148.337 3.1875L148.697 2.9375L149.056 2.70312C150.381 1.81503 151.894 1.4078 153.478 1.75L154.197 1.90625C155.197 2.12235 156.199 2.37407 157.197 2.65625L157.556 2.76562L157.916 2.85938C158.344 2.98022 158.788 2.95549 159.337 2.67188L160.056 2.29688C161.585 1.50935 163.226 1.49938 164.759 2.28125L165.478 2.65625C165.66 2.749 165.765 2.7555 165.822 2.75C165.891 2.74278 166.052 2.70958 166.306 2.53125L166.666 2.26562L167.025 2.01562C168.265 1.14549 169.656 0.645664 171.15 0.71875L171.869 0.75C173.387 0.8247 174.756 1.50602 175.947 2.51562L176.306 2.8125L176.666 3.125C177.389 3.73717 177.939 3.91728 178.337 3.9375L179.056 3.96875C179.123 3.97189 179.542 3.96168 180.322 3.04688L181.041 2.20312C182.241 0.794921 183.995 -0.29381 186.072 0.390625L186.431 0.515625L186.791 0.625C187.319 0.800125 187.827 0.805919 188.369 0.609375L188.728 0.46875L189.087 0.34375C190.032 0.00113085 191.018 0.0233681 191.947 0.390625C192.823 0.737873 193.559 1.34686 194.166 2.04688L194.884 2.89062C195.658 3.78082 196.13 3.88514 196.291 3.89062H196.65L197.009 3.90625C197.99 3.92889 198.982 3.96256 199.962 4.01562L200.322 4.03125L200.681 4.0625C201.072 4.08265 201.582 3.95402 202.259 3.45312L202.978 2.92188C203.668 2.41137 204.465 2.0354 205.353 1.92188C206.258 1.8071 207.139 1.98981 207.931 2.375L208.65 2.71875C209.041 2.9079 209.339 2.90686 209.744 2.70312L210.103 2.53125L210.462 2.34375C212.016 1.55981 213.672 1.5988 215.197 2.42188L215.556 2.60938L215.916 2.8125C216.69 3.231 217.426 3.46835 218.119 3.5625L218.837 3.65625C219.613 3.76163 220.389 3.76807 221.166 3.65625L221.525 3.59375L221.884 3.54688C222.872 3.4046 223.865 3.28718 224.853 3.1875L225.212 3.14062L225.572 3.10938C226.377 3.02787 227.199 2.85274 228.025 2.57812L228.384 2.45312L228.744 2.34375C230.117 1.88788 231.529 1.8939 232.9 2.35938L233.259 2.46875L233.619 2.59375C234.145 2.77254 234.629 2.97289 235.041 3.1875C235.388 3.36884 235.954 3.70143 236.337 4.26562L236.416 4.375L236.478 4.46875C236.867 5.04222 236.96 5.69684 236.994 6.09375C237.032 6.55524 237.022 7.07419 236.978 7.60938L236.916 8.32812C236.835 9.29694 236.746 10.2656 236.65 11.2344L236.619 11.5938L236.572 11.9531C236.506 12.6226 236.589 13.3075 236.822 14.0156L236.931 14.375L237.056 14.7344C237.394 15.762 237.67 16.7939 237.884 17.8281L238.041 18.5469C238.23 19.4607 238.456 20.3809 238.712 21.2969L238.9 22.0156C239.234 23.2118 239.343 24.4358 239.212 25.6562L239.181 26.0156L239.134 26.375C239.041 27.2444 239.015 28.1164 239.041 28.9844L239.056 29.3438V29.7031C239.098 31.1271 238.662 32.4704 237.884 33.7031L237.666 34.0625L237.431 34.4219C236.958 35.171 236.719 35.8569 236.65 36.4688L236.619 36.8281L236.572 37.1875C236.533 37.5383 236.626 38.0054 237.103 38.6562L237.353 39.0156L237.619 39.375C238.143 40.0897 238.514 40.9311 238.572 41.875C238.628 42.8303 238.356 43.7174 237.884 44.4844L237.447 45.2031C237.074 45.8085 237.012 46.2761 237.087 46.6719L237.166 47.0312L237.228 47.3906C237.443 48.5294 237.504 49.6818 237.4 50.8281L237.369 51.1875L237.322 51.5469C237.272 52.1083 237.377 52.7083 237.697 53.375L238.041 54.0938C238.432 54.9085 238.601 55.8096 238.447 56.7344C238.295 57.6363 237.857 58.433 237.306 59.1094L237.025 59.4688L236.728 59.8281C236.31 60.3419 236.39 60.5341 236.447 60.6719L236.587 61.0312L236.744 61.4062C236.972 61.9615 237.282 62.8983 236.978 63.8594C236.799 64.425 236.436 64.9233 235.916 65.25C235.436 65.5507 234.929 65.6317 234.541 65.6562L234.275 65.6875L234.009 65.7031C233.679 65.7239 233.118 65.8664 232.291 66.2969L231.572 66.6719C230.003 67.4871 228.326 67.4379 226.791 66.5781L226.072 66.1719C225.345 65.765 224.678 65.5901 224.072 65.5625L223.353 65.5312C222.839 65.5089 222.264 65.6357 221.587 66.0312L221.228 66.2344L220.853 66.4531C219.555 67.2123 218.131 67.5501 216.65 67.3125L216.291 67.25L215.931 67.2031C215.121 67.0732 214.315 67.025 213.509 67.0781L213.15 67.1094L212.775 67.1406C211.42 67.2294 210.106 66.922 208.869 66.2969L208.15 65.9219C207.203 65.4432 206.252 64.985 205.306 64.5312L204.947 64.3594L204.666 64.2188C204.573 64.2796 204.387 64.4173 204.134 64.7344L203.416 65.6406C202.806 66.4057 201.988 67.1416 200.916 67.4219C199.737 67.7289 198.647 67.393 197.791 66.7656L197.072 66.2344C196.318 65.6801 195.655 65.4099 195.087 65.3281L194.369 65.2344C193.259 65.075 192.158 64.7811 191.072 64.375L190.712 64.25L190.353 64.1094C190.198 64.0515 189.971 63.9882 189.431 64.4219L189.056 64.7031L188.697 65C187.982 65.5742 187.11 66.0014 186.103 66.0469C185.08 66.0912 184.158 65.7322 183.4 65.1875L183.041 64.9219L182.681 64.6719C181.99 64.1754 181.445 64.0234 181.009 64.0312L180.65 64.0469H180.291C179.375 64.0643 178.456 64.1113 177.541 64.1875L176.822 64.25C176.086 64.3114 175.323 64.5011 174.541 64.8281L174.181 64.9844L173.822 65.125C172.669 65.6067 171.48 65.8871 170.275 65.9531L169.916 65.9844L169.556 66C168.823 66.0404 168.066 66.1974 167.291 66.5L166.572 66.7812C165.123 67.3458 163.628 67.3227 162.197 66.7188L161.822 66.5625L161.462 66.4062C160.878 66.1605 160.353 66.1242 159.837 66.25L159.478 66.3438L159.119 66.4219C157.664 66.7759 156.227 66.5842 154.884 65.9219L154.525 65.75L154.166 65.5625C153.42 65.1947 152.718 65.0206 152.056 64.9844L151.697 64.9531L151.337 64.9375C150.495 64.8915 149.651 64.9144 148.806 65.0156L148.087 65.1094C147.438 65.1872 146.736 65.4155 145.978 65.8594L145.619 66.0781L145.259 66.2812C144.467 66.7453 143.558 66.9977 142.587 66.8906C141.638 66.7853 140.813 66.3566 140.119 65.7969L139.759 65.5156L139.4 65.2188C138.809 64.7424 138.494 64.7754 138.306 64.8281L137.947 64.9375L137.587 65.0312C136.835 65.2418 136.047 65.5962 135.228 66.1094L134.869 66.3281L134.509 66.5625C133.08 67.4566 131.462 67.6984 129.853 67.0781L129.134 66.7969C128.396 66.5112 127.679 66.381 126.994 66.3906H126.634L126.275 66.4062C125.26 66.4204 124.243 66.3835 123.228 66.3125L122.869 66.2969L122.509 66.2656C121.689 66.2082 120.864 66.2296 120.041 66.3438L119.681 66.4062L119.322 66.4531C118.278 66.5976 117.227 66.6784 116.181 66.6875H115.462C113.963 66.6995 112.589 66.1231 111.369 65.2031L110.65 64.6719C110.413 64.4935 110.279 64.4575 110.244 64.4531C110.234 64.4523 110.154 64.4456 109.978 64.5469L109.619 64.7656L109.259 64.9688C107.86 65.7812 106.303 66.0132 104.744 65.5L104.384 65.375L104.025 65.2656C103.815 65.1965 103.529 65.1601 102.978 65.5781L102.619 65.8438L102.259 66.125C101.462 66.7292 100.454 67.1169 99.3218 66.9531C98.2465 66.7974 97.3859 66.1873 96.728 65.5L96.3687 65.1094L96.0249 64.75L95.3062 65.5312C94.6229 66.2609 93.6433 66.9375 92.3843 66.9219C91.1305 66.9062 90.166 66.2051 89.4937 65.4688L88.7749 64.6875C88.7359 64.6448 88.6968 64.6081 88.6655 64.5781L88.353 64.8594L87.9937 65.1875C86.6859 66.3629 85.0178 67.0278 83.1968 66.4844L82.478 66.2656C82.0839 66.148 81.6734 66.1709 81.1343 66.4688L80.7749 66.6719L80.4155 66.8594C79.0108 67.6353 77.4697 67.8441 75.9312 67.3281L75.2124 67.0781C74.0009 66.6716 72.8458 66.0153 71.7437 65.1562L71.0249 64.5938C70.3603 64.0755 69.8941 63.9986 69.5718 64.0312L69.2124 64.0625L68.853 64.1094C68.5924 64.1359 68.0489 64.3274 67.2593 65.2188L66.5405 66.0312C65.9198 66.7305 65.1449 67.347 64.1968 67.6406C63.182 67.9542 62.1657 67.8368 61.2593 67.375L60.5405 67C59.651 66.547 58.7617 66.1617 57.8843 65.8438L57.1655 65.5938C56.6879 65.4208 56.2478 65.417 55.7437 65.625L55.0249 65.9375C53.811 66.4425 52.5427 66.6784 51.2593 66.6094L50.8999 66.5781L50.5405 66.5625C49.066 66.4828 47.7199 65.8545 46.5249 64.9062L45.8062 64.3438C45.2925 63.9361 45.0883 64.014 44.9312 64.0781L44.5718 64.2188L44.2124 64.375C42.9038 64.91 41.5248 65.0407 40.1499 64.75L39.7905 64.6875L39.4312 64.6094C38.9674 64.512 38.4761 64.5569 37.8843 64.8594L37.1655 65.2344C35.5088 66.0832 33.7711 65.8955 32.2593 64.8906L31.5405 64.4219C30.9037 63.9986 30.4205 63.9055 30.0249 63.9531L29.6499 64L29.2905 64.0469C28.6654 64.1262 27.9806 64.3736 27.228 64.8438L26.8687 65.0625L26.5093 65.2969C25.4868 65.9355 24.4529 66.4889 23.4155 66.9688L23.0405 67.1406L22.6812 67.3125C21.4373 67.8859 20.1298 68.1355 18.7905 68.0156L18.0718 67.9531C16.7004 67.8304 15.4117 67.3065 14.228 66.4844L13.8687 66.2344L13.5093 65.9688L13.2593 65.8438H13.2437C13.2369 65.8451 13.2166 65.8521 13.1968 65.8594C13.1521 65.8762 13.0628 65.915 12.9468 66L12.228 66.5312C10.8176 67.5638 9.14999 67.9302 7.44678 67.2656L6.72803 66.9844C5.56203 66.5287 4.48154 65.8723 3.75928 64.875L3.44678 64.4375C2.66982 63.3632 2.46365 62.0766 2.55615 60.8125L2.57178 60.4531L2.60303 60.0938C2.656 59.3697 2.59013 58.6378 2.38428 57.8906L2.2749 57.5312L2.18115 57.1719C1.84978 55.9693 1.75307 54.7411 1.8999 53.5156L1.99365 52.7969C2.07143 52.1404 1.99959 51.4746 1.7749 50.7812L1.66553 50.4219L1.54053 50.0625C1.03832 48.516 1.26404 46.9743 2.05615 45.5781L2.4624 44.8594L2.5249 44.7344C2.52472 44.7333 2.51632 44.696 2.47803 44.625C2.4384 44.5519 2.35493 44.4524 2.22803 44.3125L1.8999 43.9375L1.57178 43.5781C0.945171 42.8862 0.440314 42.0127 0.353027 40.9688C0.264693 39.8972 0.640493 38.9431 1.2124 38.1719L1.47803 37.8125L1.75928 37.4531C2.28731 36.743 2.46197 36.1635 2.47803 35.7031L2.49365 35.3438V34.9844C2.51734 34.2373 2.43011 33.4734 2.2124 32.7031L2.10303 32.3438L2.00928 31.9844C1.54653 30.3472 1.94124 28.7777 2.88428 27.4219L3.38428 26.7031C3.69934 26.2509 3.66334 26.0321 3.55615 25.7969L3.38428 25.4375L3.22803 25.0781C2.82797 24.205 2.33728 23.312 1.7749 22.4219L1.55615 22.0625L1.32178 21.7031C0.513583 20.4213 0.125164 18.9985 0.321777 17.5L0.415527 16.7812C0.574457 15.5699 0.953708 14.3893 1.54053 13.25L1.72803 12.8906L1.91553 12.5156C2.1608 12.0378 2.16234 11.6771 2.00928 11.2812L1.88428 10.9219L0.337402 6.96875C0.0991308 6.35539 -0.116236 5.51994 0.0717773 4.65625C0.304186 3.5945 1.0536 2.88107 1.94678 2.57812L2.41553 2.42188C2.91956 2.25113 3.63554 1.9486 4.55615 1.48438L4.91553 1.3125L5.2749 1.125C6.89215 0.311478 8.58883 0.437189 10.103 1.375L10.4624 1.59375L10.8218 1.82812C11.6884 2.36471 12.5452 2.78996 13.3843 3.125L13.7437 3.28125L14.103 3.42188C14.5095 3.58393 14.8821 3.57865 15.353 3.34375L15.7124 3.15625L16.0718 2.98438C17.1012 2.46948 18.1394 2.023 19.1812 1.65625L19.8999 1.40625C21.2467 0.932339 22.6406 0.881737 24.0093 1.28125L24.728 1.5C25.6857 1.77973 26.6453 2.05163 27.603 2.32812L27.9624 2.4375L28.3218 2.53125C28.8036 2.67035 29.2841 2.65297 29.8374 2.40625L30.1968 2.25L30.5562 2.07812C31.7155 1.5616 32.9123 1.25773 34.1343 1.1875L34.4937 1.17188L34.853 1.14062C35.6011 1.09765 36.366 0.944808 37.1499 0.65625L37.5093 0.515625L37.8843 0.390625ZM39.2593 4.14062L38.8999 4.28125L38.5405 4.40625C37.4083 4.82396 36.2556 5.07315 35.0874 5.14062L34.728 5.15625L34.3687 5.1875C33.6718 5.22753 32.9407 5.39571 32.1812 5.73438L31.8218 5.89062L31.4624 6.0625C30.0966 6.67077 28.6496 6.78994 27.2124 6.375L26.853 6.28125L26.4937 6.17188C25.5319 5.8942 24.5648 5.60905 23.603 5.32812L23.2437 5.23438L22.8843 5.125C22.3346 4.96513 21.7996 4.97074 21.228 5.17188L20.5093 5.42188C19.6334 5.73013 18.7568 6.11839 17.8687 6.5625L17.5093 6.73438L17.1499 6.92188C15.7044 7.64487 14.1448 7.74054 12.6343 7.14062L12.2749 6.98438L11.9155 6.84375C10.8375 6.41396 9.7627 5.86928 8.7124 5.21875L7.99365 4.78125C7.58941 4.53087 7.37302 4.55122 7.07178 4.70312L6.7124 4.875L6.35303 5.0625C5.58834 5.4481 4.86861 5.72429 4.24365 5.96875L4.35303 6.23438C4.72633 7.19533 5.0908 8.16405 5.4624 9.125L5.74365 9.84375C6.33102 11.3654 6.2202 12.9207 5.47803 14.3594L5.10303 15.0781C4.70203 15.8554 4.46148 16.5918 4.36865 17.2969L4.2749 18.0156C4.21992 18.4347 4.31023 18.9415 4.7124 19.5781L4.93115 19.9375L5.16553 20.2969C5.81501 21.3253 6.38961 22.3608 6.86865 23.4062L7.0249 23.7656L7.19678 24.125C7.96771 25.8081 7.68629 27.5192 6.66553 28.9844L6.16553 29.7031C5.77689 30.2615 5.77531 30.6109 5.85303 30.8906L5.9624 31.25L6.05615 31.6094C6.38113 32.7591 6.53085 33.9365 6.49365 35.1094L6.47803 35.4688V35.8281C6.43079 37.2835 5.85711 38.6237 4.9624 39.8281L4.43115 40.5469C4.39783 40.5917 4.36713 40.6309 4.35303 40.6562C4.37917 40.7037 4.4387 40.7783 4.54053 40.8906L5.19678 41.6094C5.80599 42.28 6.29841 43.1011 6.4624 44.0625C6.63152 45.057 6.41438 46.0044 5.94678 46.8281L5.74365 47.1875L5.5249 47.5469C5.22915 48.0684 5.23244 48.4568 5.35303 48.8281L5.57178 49.5469C5.96855 50.7696 6.11336 52.0213 5.9624 53.2812L5.86865 54C5.78584 54.6937 5.84307 55.3928 6.04053 56.1094L6.13428 56.4688L6.24365 56.8281C6.56649 58.0003 6.67487 59.1953 6.5874 60.3906L6.57178 60.75L6.54053 61.1094C6.49393 61.7536 6.6221 62.0105 6.68115 62.0938L6.85303 62.3125L7.00928 62.5312C7.12684 62.6897 7.43792 62.9752 8.18115 63.2656L8.8999 63.5469C9.11394 63.6301 9.36233 63.668 9.86865 63.2969L10.228 63.0469L10.5874 62.7812C11.318 62.2457 12.186 61.8637 13.1655 61.8438C14.1501 61.8251 15.0421 62.1677 15.7905 62.6875L16.5093 63.1875C17.2446 63.6987 17.8839 63.9198 18.4312 63.9688L19.1499 64.0312C19.7274 64.0826 20.336 63.983 21.0093 63.6719L21.3687 63.5156L21.728 63.3438C22.6046 62.9386 23.4928 62.4627 24.3843 61.9062L24.7437 61.6719L25.103 61.4531C26.2678 60.7256 27.5131 60.2399 28.8062 60.0781L29.5249 59.9844C31.0461 59.7953 32.4817 60.2446 33.7593 61.0938L34.478 61.5625C34.8859 61.8336 35.0744 61.8065 35.3374 61.6719L36.0562 61.2969C37.3798 60.619 38.8067 60.3814 40.2593 60.6875L40.978 60.8438C41.5231 60.959 42.0853 60.9219 42.6968 60.6719L43.0562 60.5156L43.4155 60.375C45.1759 59.6558 46.888 60.092 48.2905 61.2031L48.6499 61.5L49.0093 61.7812C49.7339 62.3563 50.3143 62.5542 50.7593 62.5781L51.478 62.6094C52.1139 62.6434 52.7729 62.5275 53.478 62.2344L53.8374 62.0938L54.1968 61.9375C55.6078 61.3505 57.0866 61.3083 58.5249 61.8281L58.8843 61.9531L59.2437 62.0938C60.2835 62.4705 61.3253 62.9142 62.353 63.4375L62.7124 63.625L63.0405 63.7969C63.1065 63.7642 63.2901 63.6753 63.5562 63.375L64.2749 62.5625C65.4052 61.2867 66.7876 60.2937 68.4468 60.125L68.8062 60.0938L69.1655 60.0469C70.7622 59.8847 72.2234 60.4598 73.478 61.4375L74.1968 62C75.0099 62.6341 75.7736 63.0437 76.478 63.2812L76.8374 63.4062L77.2124 63.5312C77.5912 63.6566 77.9666 63.6415 78.478 63.3594L78.8374 63.1719L79.1968 62.9688C80.5772 62.2062 82.0933 61.9827 83.6187 62.4375L84.3374 62.6562C84.4359 62.6857 84.6982 62.7631 85.3062 62.2188L86.0249 61.5625C86.7747 60.8886 87.7994 60.3655 89.0093 60.4844C90.1675 60.5995 91.071 61.2652 91.728 61.9844L92.0874 62.375L92.4155 62.75L92.7437 62.4062L93.103 62.0312C93.7818 61.3047 94.7565 60.6235 95.9937 60.6094C97.2343 60.5978 98.2122 61.2639 98.8999 61.9844L99.6187 62.7344C99.7059 62.8255 99.7833 62.8802 99.8374 62.9219L100.556 62.3906C101.925 61.3528 103.565 60.906 105.275 61.4688L105.634 61.5781L105.994 61.7031C106.353 61.8215 106.725 61.8157 107.244 61.5156L107.603 61.2969L107.962 61.0938C108.742 60.6409 109.637 60.3864 110.587 60.4688C111.522 60.5509 112.352 60.9378 113.056 61.4688L113.416 61.75L113.775 62.0156C114.473 62.5418 115.013 62.691 115.431 62.6875H116.15C117.023 62.6799 117.899 62.6057 118.775 62.4844L119.494 62.3906C120.59 62.2387 121.691 62.2043 122.791 62.2812L123.15 62.2969L123.509 62.3281C124.413 62.3914 125.324 62.4189 126.228 62.4062L126.587 62.3906H126.947C128.179 62.3741 129.392 62.606 130.572 63.0625L131.291 63.3438C131.596 63.4619 131.899 63.4744 132.384 63.1719L132.744 62.9375L133.103 62.7188C134.204 62.0291 135.342 61.4987 136.509 61.1719L137.228 60.9844C138.96 60.4998 140.571 61.0379 141.9 62.1094L142.259 62.3906L142.619 62.6875C142.868 62.8884 143.004 62.9189 143.025 62.9219C143.032 62.9227 143.05 62.9114 143.072 62.9062C143.099 62.8992 143.159 62.8775 143.244 62.8281L143.603 62.625L143.962 62.4062C145.122 61.7279 146.35 61.2927 147.619 61.1406L148.337 61.0469C149.409 60.9188 150.482 60.8944 151.556 60.9531L152.275 60.9844C153.534 61.0533 154.757 61.4048 155.931 61.9844L156.65 62.3281C157.226 62.6126 157.717 62.6601 158.181 62.5469L158.541 62.4531L158.9 62.375C160.3 62.0341 161.693 62.1707 163.025 62.7344L163.384 62.875L163.744 63.0312C164.228 63.2365 164.653 63.2432 165.119 63.0625L165.837 62.7812C166.98 62.3357 168.152 62.0652 169.337 62L170.056 61.9688C170.77 61.9297 171.509 61.757 172.275 61.4375L172.634 61.2812L172.994 61.1406C174.129 60.6662 175.296 60.3648 176.478 60.2656L177.197 60.2031C178.199 60.1195 179.21 60.066 180.212 60.0469H180.572L180.931 60.0312C182.413 60.003 183.782 60.5413 185.009 61.4219L185.369 61.6719L185.744 61.9375C185.826 61.9965 185.885 62.0186 185.916 62.0312C185.948 62.0215 186.044 61.9978 186.197 61.875L186.556 61.5938L186.916 61.2969C188.293 60.1889 189.982 59.7036 191.744 60.3594L192.462 60.6406C193.294 60.9517 194.122 61.1492 194.931 61.2656L195.291 61.3281L195.65 61.375C197.002 61.5692 198.266 62.1589 199.431 63.0156L199.791 63.2812L200.009 63.4219C200.079 63.3563 200.188 63.2845 200.291 63.1562L201.009 62.25C201.608 61.4984 202.357 60.8157 203.291 60.4531C204.048 60.1596 204.826 60.1068 205.572 60.2969L206.322 60.5781L207.041 60.9219C208.01 61.387 208.977 61.8692 209.947 62.3594L210.306 62.5312L210.666 62.7188C211.341 63.0606 211.95 63.1766 212.509 63.1406L212.869 63.125L213.244 63.0938C214.353 63.0204 215.467 63.0728 216.572 63.25L216.931 63.3125L217.291 63.3594C217.726 63.4285 218.218 63.3629 218.837 63L219.197 62.7969L219.556 62.5781C220.796 61.8515 222.136 61.4673 223.541 61.5312L224.259 61.5625C225.572 61.6223 226.833 62.02 228.025 62.6875L228.744 63.0938C229.127 63.3084 229.379 63.3062 229.728 63.125L230.447 62.75C231.177 62.37 231.926 62.0874 232.666 61.9062C232.093 60.2278 232.543 58.6192 233.619 57.2969L234.212 56.5781C234.433 56.3076 234.481 56.1413 234.494 56.0781C234.499 56.0433 234.514 55.9702 234.447 55.8281L234.275 55.4688L234.087 55.1094C233.487 53.8589 233.23 52.5284 233.353 51.1719L233.416 50.4531C233.485 49.6824 233.438 48.9032 233.291 48.125L233.166 47.4062C232.879 45.8837 233.233 44.4227 234.041 43.1094L234.478 42.3906C234.578 42.2286 234.588 42.1481 234.587 42.125C234.587 42.112 234.574 41.9897 234.4 41.75L234.134 41.3906L233.869 41.0156C232.942 39.7505 232.427 38.301 232.603 36.7344L232.634 36.375L232.681 36.0156C232.828 34.7077 233.317 33.4675 234.056 32.2969L234.275 31.9375L234.509 31.5781C234.942 30.8921 235.071 30.307 235.056 29.8125V29.4531L235.041 29.0938C235.01 28.0461 235.054 26.9993 235.166 25.9531L235.197 25.5938L235.244 25.2344C235.319 24.5348 235.259 23.8175 235.056 23.0938L234.947 22.7344L234.853 22.375C234.573 21.3728 234.327 20.3638 234.119 19.3594L234.041 19L233.978 18.6406C233.795 17.7582 233.552 16.8735 233.259 15.9844L233.134 15.625L233.025 15.2656C232.626 14.0538 232.479 12.813 232.603 11.5625L232.666 10.8438C232.759 9.89595 232.853 8.94775 232.931 8L232.994 7.28125C233.015 7.01966 232.994 6.80975 232.994 6.65625C232.832 6.58518 232.613 6.4896 232.322 6.39062L231.603 6.14062C231.056 5.95553 230.538 5.95968 229.994 6.14062L229.634 6.25L229.275 6.375C228.184 6.7374 227.074 6.98164 225.962 7.09375L225.244 7.15625C224.314 7.2501 223.377 7.36603 222.447 7.5L222.087 7.5625L221.728 7.60938C220.589 7.77289 219.446 7.77927 218.306 7.625L217.587 7.53125C216.362 7.36481 215.169 6.94561 214.025 6.32812L213.666 6.14062L213.306 5.9375C212.912 5.72463 212.64 5.73797 212.275 5.92188L211.916 6.09375L211.556 6.28125C210.044 7.04405 208.425 7.05361 206.9 6.3125L206.181 5.96875C206.021 5.89088 205.924 5.88462 205.869 5.89062C205.799 5.89942 205.622 5.94193 205.353 6.14062L204.634 6.67188C203.394 7.58911 201.99 8.1293 200.462 8.04688L199.744 8.01562C198.804 7.96479 197.855 7.92794 196.916 7.90625L196.556 7.89062H196.197C194.436 7.84761 192.987 6.80863 191.853 5.5L191.494 5.09375L191.134 4.67188C190.789 4.27436 190.564 4.14447 190.478 4.10938C190.445 4.09632 190.444 4.09345 190.462 4.09375L190.447 4.10938L189.728 4.35938C188.35 4.85884 186.931 4.88247 185.541 4.42188L185.181 4.3125L184.822 4.1875C184.816 4.18889 184.807 4.19625 184.791 4.20312C184.694 4.24391 184.444 4.3786 184.087 4.79688L183.369 5.64062C182.228 6.97869 180.722 8.05579 178.869 7.96875L178.15 7.9375C176.632 7.86473 175.263 7.18116 174.072 6.17188L173.712 5.875L173.353 5.5625C172.626 4.94737 172.066 4.76961 171.666 4.75L170.947 4.71875C170.523 4.69905 169.998 4.82196 169.322 5.29688L168.603 5.79688C167.901 6.29021 167.089 6.63308 166.197 6.71875C165.297 6.80455 164.442 6.6139 163.666 6.21875L162.947 5.84375C162.562 5.6476 162.273 5.65854 161.884 5.85938L161.166 6.23438C159.797 6.93993 158.311 7.12413 156.822 6.70312L156.462 6.60938L156.103 6.5C155.185 6.24068 154.269 6.01038 153.353 5.8125L152.634 5.65625C152.299 5.58383 151.885 5.63324 151.291 6.03125L150.916 6.26562L150.556 6.5C149.326 7.32444 147.974 7.81644 146.525 7.78125L145.806 7.75C144.657 7.72089 143.509 7.53485 142.384 7.1875L141.666 6.96875C140.562 6.62739 139.47 6.14186 138.4 5.54688L138.041 5.35938L137.681 5.15625C137.486 5.04793 137.375 5.04438 137.322 5.04688C137.264 5.05006 137.125 5.0744 136.884 5.23438L136.525 5.46875L136.15 5.70312C134.792 6.60617 133.243 6.97933 131.634 6.53125L131.275 6.42188L130.916 6.32812C130.569 6.23138 130.173 6.24985 129.619 6.59375L128.9 7.03125C127.465 7.92091 125.852 8.15753 124.244 7.53125L123.525 7.25C122.478 6.84217 121.432 6.35016 120.4 5.78125L120.041 5.59375L119.681 5.39062C119.238 5.14687 118.93 5.14153 118.572 5.29688L118.212 5.46875L117.853 5.625C116.206 6.34425 114.53 6.10056 113.072 5.14062L112.712 4.89062L112.369 4.65625C112.296 4.70552 112.186 4.81 112.041 4.96875L111.322 5.75C110.684 6.44858 109.865 7.07255 108.837 7.29688C107.742 7.53437 106.714 7.26047 105.869 6.70312L105.509 6.45312L105.15 6.21875C104.599 5.85459 104.238 5.848 103.931 5.9375L103.212 6.15625C102.155 6.46571 101.092 6.69268 100.025 6.82812L99.6655 6.85938L99.3062 6.90625C97.7241 7.10674 96.2503 6.59396 94.978 5.65625L94.2593 5.125C93.5902 4.63286 93.0913 4.52017 92.7124 4.54688L91.9937 4.60938C91.5746 4.63928 90.9951 4.84142 90.2593 5.46875L89.8999 5.76562L89.5405 6.07812C88.8319 6.68118 87.9506 7.14676 86.9155 7.20312C85.8652 7.25967 84.9409 6.87713 84.1812 6.3125L83.4624 5.78125C82.7164 5.22654 82.0698 4.97566 81.5249 4.90625L80.8062 4.8125C80.3861 4.75971 79.8807 4.84744 79.2437 5.25L78.5249 5.71875C77.4231 6.41712 76.2744 6.93687 75.103 7.26562L74.7437 7.35938L74.3843 7.46875C72.7494 7.92571 71.1764 7.5353 69.8218 6.59375L69.103 6.09375C68.9954 6.01891 68.9246 5.98283 68.8843 5.96875L68.8374 5.95312H68.8218C68.814 5.95459 68.797 5.96068 68.7749 5.96875C68.73 5.98539 68.6535 6.02806 68.5405 6.10938L68.1812 6.35938L67.8218 6.625C66.3525 7.68213 64.6182 7.96388 62.9155 7.15625L62.1968 6.8125C61.2416 6.35825 60.2769 5.91466 59.3218 5.46875L58.603 5.125C58.101 4.89071 57.6858 4.888 57.2437 5.04688L56.5249 5.29688C55.6033 5.62804 54.6833 5.99736 53.7593 6.39062L53.3999 6.54688L53.0249 6.6875C51.3763 7.38774 49.7099 7.14762 48.2593 6.1875L47.8999 5.9375L47.5405 5.70312C46.867 5.25833 46.3235 5.13536 45.8687 5.15625L45.1499 5.1875C43.8655 5.24884 42.5968 4.99749 41.3843 4.48438L41.0249 4.34375L40.6655 4.1875C40.1652 3.97634 39.7315 3.96636 39.2593 4.14062ZM233.775 62.1875L233.806 62.5938L234.322 62.375L234.306 61.9688L233.775 62.1875ZM234.322 62.375L233.806 62.5938L233.775 62.1875L234.306 61.9688L234.322 62.375Z" fill="#98050D"/>
</svg>
