<svg width="240" height="69" viewBox="0 0 240 69" fill="none" xmlns="http://www.w3.org/2000/svg">
<rect width="240" height="68" transform="translate(0.00909424)" fill="#E3E1D5"/>
<path d="M4.00909 4H236.009V64H4.00909V4Z" fill="#E3E1D5"/>
<path d="M37.8841 0.390625C39.329 -0.14104 40.8113 -0.0992812 42.2278 0.5L42.9466 0.8125C43.6512 1.11052 44.3134 1.21667 44.9466 1.1875L45.306 1.17188L45.681 1.15625C47.1417 1.08823 48.5186 1.55395 49.7591 2.375L50.4778 2.84375C50.9426 3.15072 51.1939 3.12915 51.4622 3.01562L52.181 2.70312C53.1737 2.28052 54.1702 1.88895 55.1653 1.53125L55.5403 1.40625L55.8997 1.28125C57.3745 0.7526 58.8753 0.840631 60.2903 1.5L61.0091 1.84375C61.9734 2.29393 62.9511 2.74456 63.9153 3.20312L64.6341 3.54688C64.8468 3.64721 65.0349 3.69301 65.4778 3.375L65.8372 3.10938L66.1966 2.85938C66.9319 2.33035 67.8126 1.96506 68.7903 1.95312C69.7651 1.94258 70.6408 2.28186 71.3841 2.79688L72.1028 3.29688C72.6662 3.68848 73.0229 3.68862 73.306 3.60938L73.6653 3.51562L74.0247 3.40625C74.7733 3.19616 75.5659 2.84675 76.3841 2.32812L76.7435 2.10938L77.1028 1.875C78.3823 1.06504 79.8087 0.65557 81.306 0.84375L82.0247 0.9375C83.3965 1.1111 84.667 1.70802 85.8372 2.57812L86.556 3.10938C86.6267 3.162 86.6827 3.18923 86.7122 3.20312C86.7553 3.18284 86.8298 3.13057 86.9466 3.03125L87.306 2.71875L87.6653 2.42188C88.8495 1.41235 90.2113 0.716465 91.7122 0.609375L92.0716 0.59375L92.431 0.5625C93.9687 0.453976 95.3875 0.988008 96.6341 1.90625L97.3528 2.4375C97.9964 2.91186 98.453 2.97862 98.7903 2.9375L99.1653 2.89062L99.5247 2.85938C100.374 2.75138 101.227 2.56418 102.087 2.3125L102.447 2.20312L102.806 2.10938C104.419 1.63713 105.984 1.98582 107.353 2.89062L107.712 3.125L108.04 3.34375C108.112 3.29493 108.228 3.21594 108.368 3.0625L108.728 2.65625L109.087 2.26562C109.727 1.56562 110.558 0.942623 111.587 0.71875C112.683 0.48126 113.71 0.75419 114.556 1.3125L114.915 1.5625L115.275 1.79688C115.73 2.09657 115.976 2.06915 116.243 1.95312L116.962 1.64062C118.521 0.959852 120.144 1.07806 121.618 1.89062L121.978 2.07812L122.337 2.28125C123.224 2.76987 124.106 3.19164 124.978 3.53125L125.337 3.65625L125.697 3.79688C126.007 3.91768 126.308 3.93825 126.79 3.64062L127.15 3.40625L127.509 3.1875C128.875 2.34015 130.42 2.02879 131.993 2.46875L132.353 2.57812L132.712 2.67188C133.02 2.75687 133.389 2.74589 133.947 2.375L134.665 1.90625C135.383 1.42844 136.201 1.09627 137.103 1.04688C138.009 0.997913 138.858 1.23417 139.618 1.65625L140.337 2.0625C141.186 2.53466 142.022 2.88834 142.837 3.14062L143.556 3.35938C144.349 3.60456 145.131 3.73052 145.9 3.75L146.618 3.78125C147.086 3.7931 147.65 3.64855 148.337 3.1875L148.697 2.9375L149.056 2.70312C150.381 1.81503 151.893 1.4078 153.478 1.75L154.197 1.90625C155.197 2.12235 156.198 2.37407 157.197 2.65625L157.556 2.76562L157.915 2.85938C158.344 2.98022 158.788 2.95549 159.337 2.67188L160.056 2.29688C161.585 1.50935 163.226 1.49938 164.759 2.28125L165.478 2.65625C165.66 2.749 165.764 2.7555 165.822 2.75C165.891 2.74278 166.052 2.70958 166.306 2.53125L166.665 2.26562L167.025 2.01562C168.265 1.14549 169.656 0.645664 171.15 0.71875L171.868 0.75C173.386 0.8247 174.755 1.50602 175.947 2.51562L176.306 2.8125L176.665 3.125C177.388 3.73717 177.939 3.91728 178.337 3.9375L179.056 3.96875C179.123 3.97189 179.542 3.96168 180.322 3.04688L181.04 2.20312C182.24 0.794921 183.994 -0.29381 186.072 0.390625L186.431 0.515625L186.79 0.625C187.319 0.800125 187.826 0.805919 188.368 0.609375L188.728 0.46875L189.087 0.34375C190.032 0.00113085 191.018 0.0233681 191.947 0.390625C192.823 0.737873 193.558 1.34686 194.165 2.04688L194.884 2.89062C195.657 3.78082 196.13 3.88514 196.29 3.89062H196.65L197.009 3.90625C197.99 3.92889 198.982 3.96256 199.962 4.01562L200.322 4.03125L200.681 4.0625C201.072 4.08265 201.582 3.95402 202.259 3.45312L202.978 2.92188C203.668 2.41137 204.464 2.0354 205.353 1.92188C206.258 1.8071 207.139 1.98981 207.931 2.375L208.65 2.71875C209.041 2.9079 209.339 2.90686 209.743 2.70312L210.103 2.53125L210.462 2.34375C212.016 1.55981 213.672 1.5988 215.197 2.42188L215.556 2.60938L215.915 2.8125C216.69 3.231 217.425 3.46835 218.118 3.5625L218.837 3.65625C219.613 3.76163 220.389 3.76807 221.165 3.65625L221.525 3.59375L221.884 3.54688C222.872 3.4046 223.864 3.28718 224.853 3.1875L225.212 3.14062L225.572 3.10938C226.377 3.02787 227.199 2.85274 228.025 2.57812L228.384 2.45312L228.743 2.34375C230.117 1.88788 231.529 1.8939 232.9 2.35938L233.259 2.46875L233.618 2.59375C234.145 2.77254 234.629 2.97289 235.04 3.1875C235.387 3.36884 235.954 3.70143 236.337 4.26562L236.415 4.375L236.478 4.46875C236.867 5.04222 236.96 5.69684 236.993 6.09375C237.032 6.55524 237.022 7.07419 236.978 7.60938L236.915 8.32812C236.835 9.29694 236.746 10.2656 236.65 11.2344L236.618 11.5938L236.572 11.9531C236.505 12.6226 236.589 13.3075 236.822 14.0156L236.931 14.375L237.056 14.7344C237.394 15.762 237.67 16.7939 237.884 17.8281L238.04 18.5469C238.23 19.4607 238.456 20.3809 238.712 21.2969L238.9 22.0156C239.234 23.2118 239.343 24.4358 239.212 25.6562L239.181 26.0156L239.134 26.375C239.041 27.2444 239.015 28.1164 239.04 28.9844L239.056 29.3438V29.7031C239.097 31.1271 238.661 32.4704 237.884 33.7031L237.665 34.0625L237.431 34.4219C236.958 35.171 236.719 35.8569 236.65 36.4688L236.618 36.8281L236.572 37.1875C236.533 37.5383 236.625 38.0054 237.103 38.6562L237.353 39.0156L237.618 39.375C238.143 40.0897 238.514 40.9311 238.572 41.875C238.628 42.8303 238.355 43.7174 237.884 44.4844L237.447 45.2031C237.074 45.8085 237.012 46.2761 237.087 46.6719L237.165 47.0312L237.228 47.3906C237.443 48.5294 237.504 49.6818 237.4 50.8281L237.368 51.1875L237.322 51.5469C237.272 52.1083 237.377 52.7083 237.697 53.375L238.04 54.0938C238.432 54.9085 238.601 55.8096 238.447 56.7344C238.295 57.6363 237.857 58.433 237.306 59.1094L237.025 59.4688L236.728 59.8281C236.31 60.3419 236.39 60.5341 236.447 60.6719L236.587 61.0312L236.743 61.4062C236.971 61.9615 237.282 62.8983 236.978 63.8594C236.799 64.425 236.435 64.9233 235.915 65.25C235.436 65.5507 234.929 65.6317 234.54 65.6562L234.275 65.6875L234.009 65.7031C233.679 65.7239 233.118 65.8664 232.29 66.2969L231.572 66.6719C230.002 67.4871 228.326 67.4379 226.79 66.5781L226.072 66.1719C225.345 65.765 224.678 65.5901 224.072 65.5625L223.353 65.5312C222.839 65.5089 222.264 65.6357 221.587 66.0312L221.228 66.2344L220.853 66.4531C219.555 67.2123 218.131 67.5501 216.65 67.3125L216.29 67.25L215.931 67.2031C215.121 67.0732 214.315 67.025 213.509 67.0781L213.15 67.1094L212.775 67.1406C211.42 67.2294 210.106 66.922 208.868 66.2969L208.15 65.9219C207.203 65.4432 206.252 64.985 205.306 64.5312L204.947 64.3594L204.665 64.2188C204.572 64.2796 204.387 64.4173 204.134 64.7344L203.415 65.6406C202.806 66.4057 201.988 67.1416 200.915 67.4219C199.737 67.7289 198.647 67.393 197.79 66.7656L197.072 66.2344C196.318 65.6801 195.655 65.4099 195.087 65.3281L194.368 65.2344C193.259 65.075 192.158 64.7811 191.072 64.375L190.712 64.25L190.353 64.1094C190.198 64.0515 189.97 63.9882 189.431 64.4219L189.056 64.7031L188.697 65C187.981 65.5742 187.11 66.0014 186.103 66.0469C185.079 66.0912 184.158 65.7322 183.4 65.1875L183.04 64.9219L182.681 64.6719C181.99 64.1754 181.445 64.0234 181.009 64.0312L180.65 64.0469H180.29C179.375 64.0643 178.456 64.1113 177.54 64.1875L176.822 64.25C176.086 64.3114 175.323 64.5011 174.54 64.8281L174.181 64.9844L173.822 65.125C172.669 65.6067 171.48 65.8871 170.275 65.9531L169.915 65.9844L169.556 66C168.823 66.0404 168.066 66.1974 167.29 66.5L166.572 66.7812C165.123 67.3458 163.628 67.3227 162.197 66.7188L161.822 66.5625L161.462 66.4062C160.878 66.1605 160.353 66.1242 159.837 66.25L159.478 66.3438L159.118 66.4219C157.664 66.7759 156.227 66.5842 154.884 65.9219L154.525 65.75L154.165 65.5625C153.42 65.1947 152.717 65.0206 152.056 64.9844L151.697 64.9531L151.337 64.9375C150.495 64.8915 149.651 64.9144 148.806 65.0156L148.087 65.1094C147.438 65.1872 146.736 65.4155 145.978 65.8594L145.618 66.0781L145.259 66.2812C144.467 66.7453 143.558 66.9977 142.587 66.8906C141.638 66.7853 140.813 66.3566 140.118 65.7969L139.759 65.5156L139.4 65.2188C138.809 64.7424 138.494 64.7754 138.306 64.8281L137.947 64.9375L137.587 65.0312C136.835 65.2418 136.047 65.5962 135.228 66.1094L134.868 66.3281L134.509 66.5625C133.08 67.4566 131.462 67.6984 129.853 67.0781L129.134 66.7969C128.396 66.5112 127.679 66.381 126.993 66.3906H126.634L126.275 66.4062C125.259 66.4204 124.243 66.3835 123.228 66.3125L122.868 66.2969L122.509 66.2656C121.688 66.2082 120.864 66.2296 120.04 66.3438L119.681 66.4062L119.322 66.4531C118.278 66.5976 117.227 66.6784 116.181 66.6875H115.462C113.962 66.6995 112.589 66.1231 111.368 65.2031L110.65 64.6719C110.413 64.4935 110.279 64.4575 110.243 64.4531C110.234 64.4523 110.154 64.4456 109.978 64.5469L109.618 64.7656L109.259 64.9688C107.86 65.7812 106.303 66.0132 104.743 65.5L104.384 65.375L104.025 65.2656C103.815 65.1965 103.529 65.1601 102.978 65.5781L102.618 65.8438L102.259 66.125C101.462 66.7292 100.453 67.1169 99.3216 66.9531C98.2463 66.7974 97.3857 66.1873 96.7278 65.5L96.3685 65.1094L96.0247 64.75L95.306 65.5312C94.6228 66.2609 93.6431 66.9375 92.3841 66.9219C91.1303 66.9062 90.1658 66.2051 89.4935 65.4688L88.7747 64.6875C88.7357 64.6448 88.6966 64.6081 88.6653 64.5781L88.3528 64.8594L87.9935 65.1875C86.6857 66.3629 85.0177 67.0278 83.1966 66.4844L82.4778 66.2656C82.0837 66.148 81.6732 66.1709 81.1341 66.4688L80.7747 66.6719L80.4153 66.8594C79.0106 67.6353 77.4696 67.8441 75.931 67.3281L75.2122 67.0781C74.0007 66.6716 72.8456 66.0153 71.7435 65.1562L71.0247 64.5938C70.3601 64.0755 69.894 63.9986 69.5716 64.0312L69.2122 64.0625L68.8528 64.1094C68.5922 64.1359 68.0487 64.3274 67.2591 65.2188L66.5403 66.0312C65.9196 66.7305 65.1447 67.347 64.1966 67.6406C63.1818 67.9542 62.1656 67.8368 61.2591 67.375L60.5403 67C59.6508 66.547 58.7615 66.1617 57.8841 65.8438L57.1653 65.5938C56.6877 65.4208 56.2476 65.417 55.7435 65.625L55.0247 65.9375C53.8108 66.4425 52.5425 66.6784 51.2591 66.6094L50.8997 66.5781L50.5403 66.5625C49.0658 66.4828 47.7197 65.8545 46.5247 64.9062L45.806 64.3438C45.2923 63.9361 45.0881 64.014 44.931 64.0781L44.5716 64.2188L44.2122 64.375C42.9037 64.91 41.5246 65.0407 40.1497 64.75L39.7903 64.6875L39.431 64.6094C38.9672 64.512 38.4759 64.5569 37.8841 64.8594L37.1653 65.2344C35.5086 66.0832 33.7709 65.8955 32.2591 64.8906L31.5403 64.4219C30.9035 63.9986 30.4203 63.9055 30.0247 63.9531L29.6497 64L29.2903 64.0469C28.6652 64.1262 27.9804 64.3736 27.2278 64.8438L26.8685 65.0625L26.5091 65.2969C25.4866 65.9355 24.4527 66.4889 23.4153 66.9688L23.0403 67.1406L22.681 67.3125C21.4371 67.8859 20.1296 68.1355 18.7903 68.0156L18.0716 67.9531C16.7003 67.8304 15.4115 67.3065 14.2278 66.4844L13.8685 66.2344L13.5091 65.9688L13.2591 65.8438H13.2435C13.2367 65.8451 13.2165 65.8521 13.1966 65.8594C13.1519 65.8762 13.0626 65.915 12.9466 66L12.2278 66.5312C10.8175 67.5638 9.1498 67.9302 7.44659 67.2656L6.72784 66.9844C5.56185 66.5287 4.48136 65.8723 3.75909 64.875L3.44659 64.4375C2.66963 63.3632 2.46347 62.0766 2.55597 60.8125L2.57159 60.4531L2.60284 60.0938C2.65581 59.3697 2.58994 58.6378 2.38409 57.8906L2.27472 57.5312L2.18097 57.1719C1.8496 55.9693 1.75289 54.7411 1.89972 53.5156L1.99347 52.7969C2.07125 52.1404 1.9994 51.4746 1.77472 50.7812L1.66534 50.4219L1.54034 50.0625C1.03813 48.516 1.26385 46.9743 2.05597 45.5781L2.46222 44.8594L2.52472 44.7344C2.52453 44.7333 2.51614 44.696 2.47784 44.625C2.43822 44.5519 2.35475 44.4524 2.22784 44.3125L1.89972 43.9375L1.57159 43.5781C0.944988 42.8862 0.440131 42.0127 0.352844 40.9688C0.26451 39.8972 0.64031 38.9431 1.21222 38.1719L1.47784 37.8125L1.75909 37.4531C2.28712 36.743 2.46178 36.1635 2.47784 35.7031L2.49347 35.3438V34.9844C2.51716 34.2373 2.42993 33.4734 2.21222 32.7031L2.10284 32.3438L2.00909 31.9844C1.54634 30.3472 1.94106 28.7777 2.88409 27.4219L3.38409 26.7031C3.69916 26.2509 3.66316 26.0321 3.55597 25.7969L3.38409 25.4375L3.22784 25.0781C2.82778 24.205 2.3371 23.312 1.77472 22.4219L1.55597 22.0625L1.32159 21.7031C0.5134 20.4213 0.124981 18.9985 0.321594 17.5L0.415344 16.7812C0.574273 15.5699 0.953525 14.3893 1.54034 13.25L1.72784 12.8906L1.91534 12.5156C2.16062 12.0378 2.16216 11.6771 2.00909 11.2812L1.88409 10.9219L0.337219 6.96875C0.0989477 6.35539 -0.116419 5.51994 0.0715942 4.65625C0.304003 3.5945 1.05342 2.88107 1.94659 2.57812L2.41534 2.42188C2.91938 2.25113 3.63536 1.9486 4.55597 1.48438L4.91534 1.3125L5.27472 1.125C6.89197 0.311478 8.58864 0.437189 10.1028 1.375L10.4622 1.59375L10.8216 1.82812C11.6882 2.36471 12.545 2.78996 13.3841 3.125L13.7435 3.28125L14.1028 3.42188C14.5093 3.58393 14.8819 3.57865 15.3528 3.34375L15.7122 3.15625L16.0716 2.98438C17.1011 2.46948 18.1392 2.023 19.181 1.65625L19.8997 1.40625C21.2466 0.932339 22.6404 0.881737 24.0091 1.28125L24.7278 1.5C25.6855 1.77973 26.6452 2.05163 27.6028 2.32812L27.9622 2.4375L28.3216 2.53125C28.8034 2.67035 29.2839 2.65297 29.8372 2.40625L30.1966 2.25L30.556 2.07812C31.7154 1.5616 32.9121 1.25773 34.1341 1.1875L34.4935 1.17188L34.8528 1.14062C35.6009 1.09765 36.3658 0.944808 37.1497 0.65625L37.5091 0.515625L37.8841 0.390625ZM39.2591 4.14062L38.8997 4.28125L38.5403 4.40625C37.4081 4.82396 36.2555 5.07315 35.0872 5.14062L34.7278 5.15625L34.3685 5.1875C33.6716 5.22753 32.9405 5.39571 32.181 5.73438L31.8216 5.89062L31.4622 6.0625C30.0964 6.67077 28.6494 6.78994 27.2122 6.375L26.8528 6.28125L26.4935 6.17188C25.5317 5.8942 24.5646 5.60905 23.6028 5.32812L23.2435 5.23438L22.8841 5.125C22.3344 4.96513 21.7994 4.97074 21.2278 5.17188L20.5091 5.42188C19.6332 5.73013 18.7566 6.11839 17.8685 6.5625L17.5091 6.73438L17.1497 6.92188C15.7042 7.64487 14.1446 7.74054 12.6341 7.14062L12.2747 6.98438L11.9153 6.84375C10.8374 6.41396 9.76252 5.86928 8.71222 5.21875L7.99347 4.78125C7.58923 4.53087 7.37283 4.55122 7.07159 4.70312L6.71222 4.875L6.35284 5.0625C5.58816 5.4481 4.86842 5.72429 4.24347 5.96875L4.35284 6.23438C4.72614 7.19533 5.09061 8.16405 5.46222 9.125L5.74347 9.84375C6.33084 11.3654 6.22002 12.9207 5.47784 14.3594L5.10284 15.0781C4.70184 15.8554 4.46129 16.5918 4.36847 17.2969L4.27472 18.0156C4.21974 18.4347 4.31004 18.9415 4.71222 19.5781L4.93097 19.9375L5.16534 20.2969C5.81483 21.3253 6.38943 22.3608 6.86847 23.4062L7.02472 23.7656L7.19659 24.125C7.96753 25.8081 7.68611 27.5192 6.66534 28.9844L6.16534 29.7031C5.7767 30.2615 5.77513 30.6109 5.85284 30.8906L5.96222 31.25L6.05597 31.6094C6.38095 32.7591 6.53067 33.9365 6.49347 35.1094L6.47784 35.4688V35.8281C6.43061 37.2835 5.85692 38.6237 4.96222 39.8281L4.43097 40.5469C4.39765 40.5917 4.36695 40.6309 4.35284 40.6562C4.37898 40.7037 4.43852 40.7783 4.54034 40.8906L5.19659 41.6094C5.80581 42.28 6.29822 43.1011 6.46222 44.0625C6.63134 45.057 6.4142 46.0044 5.94659 46.8281L5.74347 47.1875L5.52472 47.5469C5.22896 48.0684 5.23226 48.4568 5.35284 48.8281L5.57159 49.5469C5.96836 50.7696 6.11317 52.0213 5.96222 53.2812L5.86847 54C5.78566 54.6937 5.84289 55.3928 6.04034 56.1094L6.13409 56.4688L6.24347 56.8281C6.56631 58.0003 6.67469 59.1953 6.58722 60.3906L6.57159 60.75L6.54034 61.1094C6.49374 61.7536 6.62192 62.0105 6.68097 62.0938L6.85284 62.3125L7.00909 62.5312C7.12665 62.6897 7.43774 62.9752 8.18097 63.2656L8.89972 63.5469C9.11375 63.6301 9.36215 63.668 9.86847 63.2969L10.2278 63.0469L10.5872 62.7812C11.3178 62.2457 12.1858 61.8637 13.1653 61.8438C14.1499 61.8251 15.0419 62.1677 15.7903 62.6875L16.5091 63.1875C17.2444 63.6987 17.8838 63.9198 18.431 63.9688L19.1497 64.0312C19.7272 64.0826 20.3358 63.983 21.0091 63.6719L21.3685 63.5156L21.7278 63.3438C22.6044 62.9386 23.4926 62.4627 24.3841 61.9062L24.7435 61.6719L25.1028 61.4531C26.2676 60.7256 27.5129 60.2399 28.806 60.0781L29.5247 59.9844C31.0459 59.7953 32.4815 60.2446 33.7591 61.0938L34.4778 61.5625C34.8857 61.8336 35.0743 61.8065 35.3372 61.6719L36.056 61.2969C37.3796 60.619 38.8065 60.3814 40.2591 60.6875L40.9778 60.8438C41.5229 60.959 42.0851 60.9219 42.6966 60.6719L43.056 60.5156L43.4153 60.375C45.1757 59.6558 46.8879 60.092 48.2903 61.2031L48.6497 61.5L49.0091 61.7812C49.7337 62.3563 50.3141 62.5542 50.7591 62.5781L51.4778 62.6094C52.1137 62.6434 52.7727 62.5275 53.4778 62.2344L53.8372 62.0938L54.1966 61.9375C55.6076 61.3505 57.0864 61.3083 58.5247 61.8281L58.8841 61.9531L59.2435 62.0938C60.2833 62.4705 61.3251 62.9142 62.3528 63.4375L62.7122 63.625L63.0403 63.7969C63.1064 63.7642 63.2899 63.6753 63.556 63.375L64.2747 62.5625C65.405 61.2867 66.7874 60.2937 68.4466 60.125L68.806 60.0938L69.1653 60.0469C70.762 59.8847 72.2232 60.4598 73.4778 61.4375L74.1966 62C75.0098 62.6341 75.7734 63.0437 76.4778 63.2812L76.8372 63.4062L77.2122 63.5312C77.591 63.6566 77.9664 63.6415 78.4778 63.3594L78.8372 63.1719L79.1966 62.9688C80.577 62.2062 82.0931 61.9827 83.6185 62.4375L84.3372 62.6562C84.4358 62.6857 84.698 62.7631 85.306 62.2188L86.0247 61.5625C86.7745 60.8886 87.7992 60.3655 89.0091 60.4844C90.1673 60.5995 91.0709 61.2652 91.7278 61.9844L92.0872 62.375L92.4153 62.75L92.7435 62.4062L93.1028 62.0312C93.7816 61.3047 94.7563 60.6235 95.9935 60.6094C97.2341 60.5978 98.212 61.2639 98.8997 61.9844L99.6185 62.7344C99.7057 62.8255 99.7831 62.8802 99.8372 62.9219L100.556 62.3906C101.925 61.3528 103.565 60.906 105.275 61.4688L105.634 61.5781L105.993 61.7031C106.353 61.8215 106.725 61.8157 107.243 61.5156L107.603 61.2969L107.962 61.0938C108.742 60.6409 109.637 60.3864 110.587 60.4688C111.522 60.5509 112.352 60.9378 113.056 61.4688L113.415 61.75L113.775 62.0156C114.473 62.5418 115.013 62.691 115.431 62.6875H116.15C117.023 62.6799 117.899 62.6057 118.775 62.4844L119.493 62.3906C120.59 62.2387 121.691 62.2043 122.79 62.2812L123.15 62.2969L123.509 62.3281C124.413 62.3914 125.324 62.4189 126.228 62.4062L126.587 62.3906H126.947C128.179 62.3741 129.392 62.606 130.572 63.0625L131.29 63.3438C131.596 63.4619 131.899 63.4744 132.384 63.1719L132.743 62.9375L133.103 62.7188C134.203 62.0291 135.341 61.4987 136.509 61.1719L137.228 60.9844C138.959 60.4998 140.571 61.0379 141.9 62.1094L142.259 62.3906L142.618 62.6875C142.868 62.8884 143.003 62.9189 143.025 62.9219C143.032 62.9227 143.05 62.9114 143.072 62.9062C143.099 62.8992 143.159 62.8775 143.243 62.8281L143.603 62.625L143.962 62.4062C145.122 61.7279 146.35 61.2927 147.618 61.1406L148.337 61.0469C149.409 60.9188 150.482 60.8944 151.556 60.9531L152.275 60.9844C153.533 61.0533 154.756 61.4048 155.931 61.9844L156.65 62.3281C157.226 62.6126 157.717 62.6601 158.181 62.5469L158.54 62.4531L158.9 62.375C160.3 62.0341 161.693 62.1707 163.025 62.7344L163.384 62.875L163.743 63.0312C164.228 63.2365 164.652 63.2432 165.118 63.0625L165.837 62.7812C166.98 62.3357 168.152 62.0652 169.337 62L170.056 61.9688C170.769 61.9297 171.509 61.757 172.275 61.4375L172.634 61.2812L172.993 61.1406C174.129 60.6662 175.296 60.3648 176.478 60.2656L177.197 60.2031C178.199 60.1195 179.209 60.066 180.212 60.0469H180.572L180.931 60.0312C182.413 60.003 183.782 60.5413 185.009 61.4219L185.368 61.6719L185.743 61.9375C185.826 61.9965 185.884 62.0186 185.915 62.0312C185.947 62.0215 186.044 61.9978 186.197 61.875L186.556 61.5938L186.915 61.2969C188.293 60.1889 189.982 59.7036 191.743 60.3594L192.462 60.6406C193.294 60.9517 194.122 61.1492 194.931 61.2656L195.29 61.3281L195.65 61.375C197.002 61.5692 198.266 62.1589 199.431 63.0156L199.79 63.2812L200.009 63.4219C200.078 63.3563 200.188 63.2845 200.29 63.1562L201.009 62.25C201.608 61.4984 202.356 60.8157 203.29 60.4531C204.048 60.1596 204.826 60.1068 205.572 60.2969L206.322 60.5781L207.04 60.9219C208.01 61.387 208.977 61.8692 209.947 62.3594L210.306 62.5312L210.665 62.7188C211.341 63.0606 211.95 63.1766 212.509 63.1406L212.868 63.125L213.243 63.0938C214.353 63.0204 215.467 63.0728 216.572 63.25L216.931 63.3125L217.29 63.3594C217.726 63.4285 218.218 63.3629 218.837 63L219.197 62.7969L219.556 62.5781C220.796 61.8515 222.136 61.4673 223.54 61.5312L224.259 61.5625C225.572 61.6223 226.833 62.02 228.025 62.6875L228.743 63.0938C229.127 63.3084 229.379 63.3062 229.728 63.125L230.447 62.75C231.177 62.37 231.926 62.0874 232.665 61.9062C232.093 60.2278 232.543 58.6192 233.618 57.2969L234.212 56.5781C234.432 56.3076 234.481 56.1413 234.493 56.0781C234.499 56.0433 234.514 55.9702 234.447 55.8281L234.275 55.4688L234.087 55.1094C233.487 53.8589 233.229 52.5284 233.353 51.1719L233.415 50.4531C233.485 49.6824 233.438 48.9032 233.29 48.125L233.165 47.4062C232.878 45.8837 233.232 44.4227 234.04 43.1094L234.478 42.3906C234.577 42.2286 234.587 42.1481 234.587 42.125C234.586 42.112 234.574 41.9897 234.4 41.75L234.134 41.3906L233.868 41.0156C232.942 39.7505 232.427 38.301 232.603 36.7344L232.634 36.375L232.681 36.0156C232.828 34.7077 233.317 33.4675 234.056 32.2969L234.275 31.9375L234.509 31.5781C234.942 30.8921 235.071 30.307 235.056 29.8125V29.4531L235.04 29.0938C235.01 28.0461 235.054 26.9993 235.165 25.9531L235.197 25.5938L235.243 25.2344C235.318 24.5348 235.258 23.8175 235.056 23.0938L234.947 22.7344L234.853 22.375C234.573 21.3728 234.326 20.3638 234.118 19.3594L234.04 19L233.978 18.6406C233.795 17.7582 233.552 16.8735 233.259 15.9844L233.134 15.625L233.025 15.2656C232.626 14.0538 232.479 12.813 232.603 11.5625L232.665 10.8438C232.759 9.89595 232.852 8.94775 232.931 8L232.993 7.28125C233.015 7.01966 232.994 6.80975 232.993 6.65625C232.832 6.58518 232.613 6.4896 232.322 6.39062L231.603 6.14062C231.056 5.95553 230.538 5.95968 229.993 6.14062L229.634 6.25L229.275 6.375C228.183 6.7374 227.074 6.98164 225.962 7.09375L225.243 7.15625C224.314 7.2501 223.377 7.36603 222.447 7.5L222.087 7.5625L221.728 7.60938C220.588 7.77289 219.446 7.77927 218.306 7.625L217.587 7.53125C216.362 7.36481 215.169 6.94561 214.025 6.32812L213.665 6.14062L213.306 5.9375C212.912 5.72463 212.64 5.73797 212.275 5.92188L211.915 6.09375L211.556 6.28125C210.044 7.04405 208.425 7.05361 206.9 6.3125L206.181 5.96875C206.021 5.89088 205.924 5.88462 205.868 5.89062C205.799 5.89942 205.621 5.94193 205.353 6.14062L204.634 6.67188C203.394 7.58911 201.99 8.1293 200.462 8.04688L199.743 8.01562C198.804 7.96479 197.855 7.92794 196.915 7.90625L196.556 7.89062H196.197C194.436 7.84761 192.987 6.80863 191.853 5.5L191.493 5.09375L191.134 4.67188C190.789 4.27436 190.563 4.14447 190.478 4.10938C190.445 4.09632 190.444 4.09345 190.462 4.09375L190.447 4.10938L189.728 4.35938C188.35 4.85884 186.931 4.88247 185.54 4.42188L185.181 4.3125L184.822 4.1875C184.816 4.18889 184.807 4.19625 184.79 4.20312C184.693 4.24391 184.444 4.3786 184.087 4.79688L183.368 5.64062C182.228 6.97869 180.722 8.05579 178.868 7.96875L178.15 7.9375C176.631 7.86473 175.262 7.18116 174.072 6.17188L173.712 5.875L173.353 5.5625C172.626 4.94737 172.066 4.76961 171.665 4.75L170.947 4.71875C170.523 4.69905 169.998 4.82196 169.322 5.29688L168.603 5.79688C167.9 6.29021 167.089 6.63308 166.197 6.71875C165.297 6.80455 164.441 6.6139 163.665 6.21875L162.947 5.84375C162.562 5.6476 162.273 5.65854 161.884 5.85938L161.165 6.23438C159.797 6.93993 158.311 7.12413 156.822 6.70312L156.462 6.60938L156.103 6.5C155.185 6.24068 154.269 6.01038 153.353 5.8125L152.634 5.65625C152.299 5.58383 151.885 5.63324 151.29 6.03125L150.915 6.26562L150.556 6.5C149.326 7.32444 147.974 7.81644 146.525 7.78125L145.806 7.75C144.656 7.72089 143.509 7.53485 142.384 7.1875L141.665 6.96875C140.561 6.62739 139.47 6.14186 138.4 5.54688L138.04 5.35938L137.681 5.15625C137.486 5.04793 137.374 5.04438 137.322 5.04688C137.264 5.05006 137.125 5.0744 136.884 5.23438L136.525 5.46875L136.15 5.70312C134.792 6.60617 133.243 6.97933 131.634 6.53125L131.275 6.42188L130.915 6.32812C130.569 6.23138 130.173 6.24985 129.618 6.59375L128.9 7.03125C127.465 7.92091 125.852 8.15753 124.243 7.53125L123.525 7.25C122.477 6.84217 121.432 6.35016 120.4 5.78125L120.04 5.59375L119.681 5.39062C119.238 5.14687 118.93 5.14153 118.572 5.29688L118.212 5.46875L117.853 5.625C116.205 6.34425 114.53 6.10056 113.072 5.14062L112.712 4.89062L112.368 4.65625C112.296 4.70552 112.185 4.81 112.04 4.96875L111.322 5.75C110.683 6.44858 109.865 7.07255 108.837 7.29688C107.742 7.53437 106.714 7.26047 105.868 6.70312L105.509 6.45312L105.15 6.21875C104.599 5.85459 104.238 5.848 103.931 5.9375L103.212 6.15625C102.155 6.46571 101.092 6.69268 100.025 6.82812L99.6653 6.85938L99.306 6.90625C97.7239 7.10674 96.2501 6.59396 94.9778 5.65625L94.2591 5.125C93.59 4.63286 93.0911 4.52017 92.7122 4.54688L91.9935 4.60938C91.5744 4.63928 90.9949 4.84142 90.2591 5.46875L89.8997 5.76562L89.5403 6.07812C88.8317 6.68118 87.9504 7.14676 86.9153 7.20312C85.8651 7.25967 84.9407 6.87713 84.181 6.3125L83.4622 5.78125C82.7163 5.22654 82.0696 4.97566 81.5247 4.90625L80.806 4.8125C80.3859 4.75971 79.8805 4.84744 79.2435 5.25L78.5247 5.71875C77.4229 6.41712 76.2742 6.93687 75.1028 7.26562L74.7435 7.35938L74.3841 7.46875C72.7492 7.92571 71.1762 7.5353 69.8216 6.59375L69.1028 6.09375C68.9952 6.01891 68.9244 5.98283 68.8841 5.96875L68.8372 5.95312H68.8216C68.8139 5.95459 68.7968 5.96068 68.7747 5.96875C68.7299 5.98539 68.6534 6.02806 68.5403 6.10938L68.181 6.35938L67.8216 6.625C66.3524 7.68213 64.618 7.96388 62.9153 7.15625L62.1966 6.8125C61.2414 6.35825 60.2768 5.91466 59.3216 5.46875L58.6028 5.125C58.1008 4.89071 57.6856 4.888 57.2435 5.04688L56.5247 5.29688C55.6031 5.62804 54.6831 5.99736 53.7591 6.39062L53.3997 6.54688L53.0247 6.6875C51.3761 7.38774 49.7097 7.14762 48.2591 6.1875L47.8997 5.9375L47.5403 5.70312C46.8668 5.25833 46.3233 5.13536 45.8685 5.15625L45.1497 5.1875C43.8653 5.24884 42.5966 4.99749 41.3841 4.48438L41.0247 4.34375L40.6653 4.1875C40.165 3.97634 39.7313 3.96636 39.2591 4.14062ZM233.775 62.1875L233.806 62.5938L234.322 62.375L234.306 61.9688L233.775 62.1875ZM234.322 62.375L233.806 62.5938L233.775 62.1875L234.306 61.9688L234.322 62.375Z" fill="#98050D"/>
</svg>
