<svg width="1920" height="1080" viewBox="0 0 1920 1080" fill="none" xmlns="http://www.w3.org/2000/svg">
<g clip-path="url(#clip0_2032_2234)">
<rect width="1920" height="1080" fill="#E3E1D5"/>
<rect width="92" height="1080" fill="#D1AABC" fill-opacity="0.3"/>
<rect x="182.8" width="92" height="1080" fill="#D1AABC" fill-opacity="0.3"/>
<rect x="365.6" width="92" height="1080" fill="#D1AABC" fill-opacity="0.3"/>
<rect x="548.4" width="92" height="1080" fill="#D1AABC" fill-opacity="0.3"/>
<rect x="731.2" width="92" height="1080" fill="#D1AABC" fill-opacity="0.3"/>
<rect x="914" width="92" height="1080" fill="#D1AABC" fill-opacity="0.3"/>
<rect x="1096.8" width="92" height="1080" fill="#D1AABC" fill-opacity="0.3"/>
<rect x="1279.6" width="92" height="1080" fill="#D1AABC" fill-opacity="0.3"/>
<rect x="1462.4" width="92" height="1080" fill="#D1AABC" fill-opacity="0.3"/>
<rect x="1645.2" width="92" height="1080" fill="#D1AABC" fill-opacity="0.3"/>
<rect x="1828" width="92" height="1080" fill="#D1AABC" fill-opacity="0.3"/>
<path d="M137 40C137 64.2673 127.36 87.5407 110.2 104.7C93.0407 121.86 69.7673 131.5 45.5 131.5C21.2327 131.5 -2.04068 121.86 -19.2003 104.7C-36.3598 87.5407 -46 64.2673 -46 40L45.5 40H137Z" fill="#98050D"/>
<path d="M320 40C320 64.2673 310.36 87.5407 293.2 104.7C276.041 121.86 252.767 131.5 228.5 131.5C204.233 131.5 180.959 121.86 163.8 104.7C146.64 87.5407 137 64.2673 137 40L228.5 40H320Z" fill="#98050D"/>
<path d="M503 40C503 64.2673 493.36 87.5407 476.2 104.7C459.041 121.86 435.767 131.5 411.5 131.5C387.233 131.5 363.959 121.86 346.8 104.7C329.64 87.5407 320 64.2673 320 40L411.5 40H503Z" fill="#98050D"/>
<path d="M686 40C686 64.2673 676.36 87.5407 659.2 104.7C642.041 121.86 618.767 131.5 594.5 131.5C570.233 131.5 546.959 121.86 529.8 104.7C512.64 87.5407 503 64.2673 503 40L594.5 40H686Z" fill="#98050D"/>
<path d="M869 40C869 64.2673 859.36 87.5407 842.2 104.7C825.041 121.86 801.767 131.5 777.5 131.5C753.233 131.5 729.959 121.86 712.8 104.7C695.64 87.5407 686 64.2673 686 40L777.5 40H869Z" fill="#98050D"/>
<path d="M1052 40C1052 64.2673 1042.36 87.5407 1025.2 104.7C1008.04 121.86 984.767 131.5 960.5 131.5C936.233 131.5 912.959 121.86 895.8 104.7C878.64 87.5407 869 64.2673 869 40L960.5 40H1052Z" fill="#98050D"/>
<path d="M1235 40C1235 64.2673 1225.36 87.5407 1208.2 104.7C1191.04 121.86 1167.77 131.5 1143.5 131.5C1119.23 131.5 1095.96 121.86 1078.8 104.7C1061.64 87.5407 1052 64.2673 1052 40L1143.5 40H1235Z" fill="#98050D"/>
<path d="M1418 40C1418 64.2673 1408.36 87.5407 1391.2 104.7C1374.04 121.86 1350.77 131.5 1326.5 131.5C1302.23 131.5 1278.96 121.86 1261.8 104.7C1244.64 87.5407 1235 64.2673 1235 40L1326.5 40H1418Z" fill="#98050D"/>
<path d="M1601 40C1601 64.2673 1591.36 87.5407 1574.2 104.7C1557.04 121.86 1533.77 131.5 1509.5 131.5C1485.23 131.5 1461.96 121.86 1444.8 104.7C1427.64 87.5407 1418 64.2673 1418 40L1509.5 40H1601Z" fill="#98050D"/>
<path d="M1784 40C1784 64.2673 1774.36 87.5407 1757.2 104.7C1740.04 121.86 1716.77 131.5 1692.5 131.5C1668.23 131.5 1644.96 121.86 1627.8 104.7C1610.64 87.5407 1601 64.2673 1601 40L1692.5 40H1784Z" fill="#98050D"/>
<path d="M1967 40C1967 64.2673 1957.36 87.5407 1940.2 104.7C1923.04 121.86 1899.77 131.5 1875.5 131.5C1851.23 131.5 1827.96 121.86 1810.8 104.7C1793.64 87.5407 1784 64.2673 1784 40L1875.5 40H1967Z" fill="#98050D"/>
<rect width="1920" height="46" fill="#98050D"/>
</g>
<defs>
<clipPath id="clip0_2032_2234">
<rect width="1920" height="1080" fill="white"/>
</clipPath>
</defs>
</svg>
